<?xml version="1.0" encoding="UTF-8"?>
<!DOCTYPE svg PUBLIC "-//W3C//DTD SVG 1.1//EN" "http://www.w3.org/Graphics/SVG/1.1/DTD/svg11.dtd">
<!-- Creator: CorelDRAW 2021 (64-Bit) -->
<svg xmlns="http://www.w3.org/2000/svg" xml:space="preserve" width="500mm" height="500mm" version="1.1" style="shape-rendering:geometricPrecision; text-rendering:geometricPrecision; image-rendering:optimizeQuality; fill-rule:evenodd; clip-rule:evenodd"
viewBox="0 0 50000 50000"
 xmlns:xlink="http://www.w3.org/1999/xlink"
 xmlns:xodm="http://www.corel.com/coreldraw/odm/2003">
 <defs>
  <style type="text/css">
   <![CDATA[
    .str0 {stroke:#99D4DF;stroke-width:20;stroke-miterlimit:22.9256}
    .fil0 {fill:#2B2A29}
    .fil2 {fill:url(#id0)}
    .fil1 {fill:url(#id1)}
   ]]>
  </style>
  <linearGradient id="id0" gradientUnits="objectBoundingBox" x1="2.83304e-05%" y1="50%" x2="100%" y2="50%">
   <stop offset="0" style="stop-opacity:1; stop-color:#5CC3E1"/>
   <stop offset="1" style="stop-opacity:1; stop-color:#31768B"/>
  </linearGradient>
  <linearGradient id="id1" gradientUnits="objectBoundingBox" x1="2.83304e-05%" y1="50%" x2="100%" y2="50%">
   <stop offset="0" style="stop-opacity:1; stop-color:#31768B"/>
   <stop offset="1" style="stop-opacity:1; stop-color:#5CC3E1"/>
  </linearGradient>
 </defs>
 <g id="Слой_x0020_1">
  <metadata id="CorelCorpID_0Corel-Layer"/>
  <g id="_2637565575776">
   <g>
    <path class="fil0" d="M22351.64 38476.16c-344.3,0 -539.09,-54.78 -819.41,-238.79 -82.31,-54.02 -129.49,-81.87 -190.08,-162.66 -319.18,-425.56 -329.92,-695.45 -548.02,-1216.58l-272.45 -714.27c-51.2,-122.67 -45.37,-127.7 -84.44,-268.29l-201.88 -503.59c-40.35,-88.11 -67.76,-151.55 -70.67,-282.07 232.01,-54.05 5296.08,-2821.87 5432.1,-2821.87 119.3,0 836.27,397.12 952.38,458.56l-444.65 754.64c-52.73,82.38 -72.27,126.12 -116.69,200.77l-728.06 1106.16c-5.39,9.09 -21.16,34.89 -26.64,43.91l-418.43 691.03c-1.94,3.94 -5.71,13.37 -7.55,17.23l-403.1 649.6c-52.26,93.28 -62.61,109.79 -122.17,195.29l-265.63 439.84c-3.93,6.72 -8.75,15.87 -12.7,22.57 -3.94,6.69 -8.77,15.87 -12.78,22.5l-392.48 630.44c-4.16,6.33 -9.74,15.05 -13.9,21.37 -4.16,6.31 -9.89,14.93 -14.05,21.23l-277.09 393.11c-108.52,177.46 -365.6,402.54 -573.63,464.86l-367.98 75.01zm5961.2 -7901.24l1554.42 -48.75c36.75,-2.79 211.89,-36.6 272.31,-30.13l707.8 3.18c534.9,-59.84 887.44,-49.14 1447.74,-76.96 55.74,-2.77 114.77,-4.54 143.97,-5.29l1376.76 -52.6c126.39,-17.78 49.59,-11.67 172.44,-15.56l779.58 -20.8 594.5 3426.67c82.71,817.55 423.1,1465.43 -195.86,2086.6l-376.89 258.03c-323.2,178.82 -742.26,131.5 -1045.15,-21.26 -140.69,-70.96 -332.3,-134.97 -456.82,-213.38 -207.82,-130.86 -119.72,-112.72 -430,-240.19 -223.42,-91.78 -288.36,-188.45 -650.26,-337.39 -100.23,-41.25 -153.73,-79.35 -228.16,-124.58l-3712.86 -1966.16c-84.53,-46.63 -157.34,-79.34 -235.2,-117.53l-438.16 -232.03c-166.13,-101.36 -320.17,-141.73 -479.45,-226.01 44.36,-190.43 111.02,-240.34 224.18,-411.68l205.19 -356.59c4.25,-6.54 9.82,-15.36 14.18,-21.81l60.31 -81.69c4.39,-6.01 10.67,-14.24 15.01,-20.28 23.38,-32.56 69.64,-102.2 84.58,-127.07l523.01 -887.46c53.75,-89.81 41.62,-22.38 72.83,-139.28zm-8641.97 4373.9l-977.72 503.76c-124.14,90.16 -172.85,111.4 -322.47,171.36 -771.53,309.18 -1214.62,997.41 -2228.27,278.38 -633.21,-449.18 -390.95,-1290.83 -315.88,-1729.05l160.77 -1003.26c140.97,-697.44 196.04,-1251.02 317.68,-1904.54 62.65,-336.62 131.1,-654.71 186.78,-977.24 27.77,-160.86 38.38,-362.51 65.24,-499.13 32.27,-164.1 80.36,-346.44 80.36,-519.29l442.71 73.77c5.09,1.32 15.35,4.09 20.37,5.43l495.95 139.48c83.86,28.84 47.82,-32.22 104.68,125.7 54.07,150.17 98.97,250.38 161.91,406.95l431.27 1189.66c165.38,368.95 451.25,1270.49 612.19,1645.3 31.06,72.33 54.76,118.55 84.66,197.53l369.41 1041.53c47.43,154.07 293.61,652.47 310.36,853.66zm14708.99 -9029.98c0,-101.99 81.3,-97.27 273.44,-290.93 193.38,-194.92 762.87,-735.05 855.3,-873.09l584.41 650.17c54.35,69.31 73.9,95.48 125.06,157.11l1385.7 1647.82c209.3,223.3 584.55,687.8 687.69,934.88 84.66,202.82 105.01,504.66 46.09,746.15 -74,303.26 -225.1,530.82 -488.81,711.22l-58.91 40.39c-90.54,55.55 -299.27,145.56 -551.12,174.53 -471.85,54.27 -608.3,-4.89 -1136.18,61.88l-1014.28 23.17 -62.33 -149.18c-21.42,-85.66 -30.08,-134.62 -42.17,-205.3l-397.06 -2369.83c-0.56,-5.04 -1.67,-15.34 -2.14,-20.66 -0.08,-0.83 -2.36,-60.88 -3.33,-72.69 -24.58,-300.93 -201.36,-897.59 -201.36,-1165.64zm-18024.69 2857.14l-1043.36 -251.91c-65.82,-19.04 -46.99,-12.03 -127.05,-27.93l-557.68 -143.78c-102.08,-24.47 -202.94,-45.46 -303.44,-74.23 -59.48,-17.03 -39.72,-10.15 -99.46,-27.43l-1774.08 -434.56c-207.34,-39.91 -453.41,-164.19 -744.94,-190.98 -91.05,-8.37 12.58,17.63 -114.49,-14.52l-2849.13 -815.17c-79.1,-45.47 -143.75,-104.39 -211.91,-176.31l-81.95 -94.42c-178.72,-212.29 -240.66,-551.56 -240.66,-852.81 0,-368.47 178.53,-596.27 391.47,-807.84 7.26,-7.21 28.59,-27.47 35.94,-34.6l366.87 -303.32c8.67,-5.82 33.96,-22.1 42.42,-28.13 6.07,-4.31 14.52,-10.37 20.47,-14.81l914.99 -707.6c50.21,-41.2 93.07,-73.38 137.72,-111.98 26.47,-22.89 48.09,-46.26 66.37,-61.61l380.79 -299.71c203.51,-189.18 948.44,-706.53 1126.9,-883.68 107.74,-106.94 148.9,-156.32 274.91,-254.19 123.09,-95.6 497.86,-411.86 615.05,-443.15l3747.72 3659.68c111.53,112.55 169.42,147.91 281.99,247.11 104.13,91.77 161.32,180.25 273.64,255.47 -84.87,176.88 -203.15,1014.74 -248.28,1332.42l-280.82 1559.99zm-952.38 -9735.45c-92.75,10.15 -68.34,6.73 -182.4,94.29l-1878.86 1477.6c-118.73,88.93 -250.78,187.39 -344.98,289.95 -3.11,3.37 -64.9,70.48 -67.93,73.17 -125.22,111.02 -239.34,110.34 -277.15,251.94l-1595.43 -1543.9c-203.97,-201.82 -732.61,-568.9 -732.61,-1172.15 0,-386.6 254.85,-856.32 591.77,-1066.07 403.6,-251.25 794.8,-257.52 1378.38,-314.74 211.34,-20.72 455.41,-75.16 700.39,-110.9 218.29,-31.84 481.75,-74.01 730.8,-115.76 147.17,-24.68 217.65,-36.37 362.08,-61.2l1139.57 -130.27c3.26,146.2 51.41,430.6 50.47,565.19l57.21 1161.35c13.87,173.66 68.69,419.85 68.69,601.5zm18483.24 -2645.5c194,0 338.48,41.85 499.67,64.71 194.8,27.63 307.97,25.25 518.34,46.03 420.75,41.56 1552.93,282.95 1947.04,310.45l1998.65 294.13c482.37,98.03 1223.33,-19.43 1714.63,542.86 493.71,565.04 420.08,1249.22 -90,1767.55 -124.36,126.37 -225.49,186.33 -353.92,316.26l-2098.6 2063.66c-64.14,64.24 -110.02,117.42 -176.64,176.09 -562.08,494.97 -920.62,933.93 -1409.09,1342.24 -216.45,180.94 -651.04,709.92 -892.23,871.43 -84.77,-56.76 -121.74,-112.43 -186.58,-201.43l-959.3 -1157.09c-67.79,-73.55 -40.13,-31.26 -107.32,-104.33l-518.02 -646c-26.12,-30.46 -52.05,-57.75 -84.23,-92.13l-805.71 -957.96c-297.17,-371.64 -250.89,-106.57 0.67,-1088.84l835.03 -3023.38c40.96,-166.2 72.9,-117.7 167.61,-524.25zm1410.93 8042.33l-1313.59 1331.92c18.41,127.73 33.25,115.2 48.34,251.22l105.96 704.89c56.26,337.27 140.35,713.34 197.35,1037.23l165.63 1068.93c42.2,237.43 191.52,842.17 196.67,1073.18 -341.53,79.57 -892.73,101.82 -1232.56,88.15l-1597.33 75.02c-156.53,8.59 -262.14,-17.16 -434.98,-8.12l-2857.5 139.64c-81.62,3.18 -161.58,-0.25 -216.22,7.57 -19.02,2.71 -224.81,61.91 -235.47,68.62 -125.77,79.17 -26.86,22.32 -53.59,75.42l-315.63 476.38c-166.57,202.36 -287.92,448.48 -426.05,667.42l-361.61 590.78c-61.82,104.3 -162.2,203.73 -205.57,323.53l-552.84 -293.72c-683.69,-383.41 -536.69,-276.92 -943.53,-109.18l-3841.8 2013.58c-420.62,208.25 -798.06,448 -1225.82,643.66 -21.81,9.98 -94.73,43.23 -97.03,44.07 -51.21,18.75 3.9,20.03 -111.46,29.63 -16.81,-201.92 -493.5,-1404.49 -623.46,-1704.58l-625.61 -1702.44c-41.37,-144.23 -105.51,-286.22 -162.33,-402.04 -77.3,-157.6 -79.18,-289.42 -151.83,-447.82l-321.27 -842.74c-67.3,-175.69 -98.5,-382.59 -249.52,-455.96 -22.94,-11.14 -81.86,-31.2 -103.24,-37.86l-422.81 -117.05c-95.02,-27.28 -83.76,-29.24 -212.01,-49.57 -95.43,-15.12 -50.6,-4.6 -165.82,-34.08l-207.25 -61.24c0,-227.47 85.54,-445.61 95.93,-634.5 35.75,-650.09 252.22,-1292.28 338.57,-1931.54 15.37,-113.78 70.31,-532.43 26.1,-608.17l-2338.83 -2319.69c-143.96,-145.26 -261.84,-224.96 -405.8,-370.22 -246.45,-248.69 -1464.25,-1399.15 -1560.77,-1543.28 16.79,-25.08 25.62,-48.22 56.13,-81.13l1832.5 -1435.76c3.28,-2.57 11.43,-8.73 14.8,-11.51 3.66,-3.01 11.49,-10.1 15.29,-13.38 74.84,-64.49 119.7,-95.26 189.07,-159.93 146.51,-136.57 223.52,-197.16 386.63,-318.86 77.56,-57.87 123,-96.1 198.03,-154.71 160.51,-125.41 160.5,-121.42 149.88,-303.55 -31.47,-539.82 -21.05,-1207.18 -116.74,-1765.93l-44.81 -587.69c162.81,-13.55 423.5,-70.24 574.34,-95.86 209.62,-35.61 389.24,-31.78 605.76,-64.43l3528.47 -527.96c270.26,-46.85 174.83,-78.31 434.06,-553.6 322.57,-591.39 577.53,-1233.03 888.68,-1827.37 137.27,-262.21 511.1,-933.08 564.8,-1163.59l1725.91 1131.24c55.55,36.93 55.94,28.04 111.28,65.08 171.73,114.95 515.13,425.15 725.61,375.96l62.81 -24.02c2.99,-1.15 11.93,-4.81 15.05,-5.99l405.26 -189.48c114.54,-39.85 153.84,-49.9 260.02,-95.49l911.13 -353.11c49.12,-25.77 79.98,-43.87 116.39,-62.67l406.89 -165.49c88.4,-31.29 157.34,-63.66 250.08,-94.69l1690.53 -672.54c126.33,-57.34 -7.82,-18.53 126.8,-49.89l1070.42 2174.73c41.61,86.78 58.27,147.66 93.6,223.86 43.67,94.17 76.37,124.71 129.51,223.23l421.67 883.44c130.12,236.26 530.85,207.43 1015.94,289.18l1151.06 154.05c718.14,101.36 687.66,-40.08 534.09,573.61l-303.45 1036.95c-89.83,359.49 -159.54,697.93 -277.9,1027.21 -58.6,163.04 -90.6,339.97 -131.17,503.75 -81.73,329.95 -147.67,710.96 -289.15,1015.97 -39.51,85.18 -55.93,101.46 -86.68,233.43 -73.13,313.75 92.81,377.72 285.48,604.49l1928.45 2304.35c51.58,59.71 102.8,126.24 157.18,195.56l614.88 725.5zm-1693.12 -8465.61l-1267.94 -178.26c-432.77,-58.32 -823.96,-174.47 -1307.01,-174.47 -71.65,-135.41 -124.03,-284.25 -199.86,-435.07l-646.7 -1293.33c-141.07,-282.14 -281.23,-564.78 -423.42,-846.42l-423.14 -881.97c91.99,-125.56 465.97,-245.05 640.23,-306.99l635.86 -234.67c4.16,-1.59 14.07,-4.89 17.95,-6.32l61.07 -21.38c185.19,-64.27 829.25,-372.69 1240.36,-519.16l327.56 -115.22c148.4,-59.06 201.44,-115.51 448.52,-202.18l61.09 -21.35c434.64,-158.18 858.2,-301.84 1302.85,-52.98 231.55,129.59 427.77,331.44 549.38,569.28 289.29,565.78 -46.29,1188.48 -184.77,1742.99l-685.63 2533.96c-1.18,4.84 -3.84,15.26 -5.01,20.09 -8.06,33.49 -13.15,57.05 -13.86,59.81 -39.25,154.61 -86.21,186.3 -127.53,363.64zm-11216.92 -3880.07c56.5,-242.53 657.3,-1419.74 811.01,-1728.67l516.31 -1035.71c82.92,-240.81 582.43,-1129.13 678.34,-1367.52 98.31,-244.33 210.5,-465.75 402.46,-620.47 639.78,-515.65 1634.84,-370.28 2021.43,569.73l1154.92 2337.14c59.42,105.8 119.75,228 164.61,329.22 64.76,146.11 76.19,189.93 161.89,331.94 62.72,103.94 118.23,214.51 166.21,327.62 104.01,245.2 223.63,455.57 342.57,680.36 -133.16,31.02 -240.9,104.78 -359.7,167.34l-1372.71 534.11c-103.51,42.14 -112.26,68.3 -207.73,109.73l-1693.02 670.3c-2.82,0.98 -11.83,4.01 -14.69,5.01 -2.99,1.05 -12.15,4.35 -15.27,5.46 -3.36,1.19 -12.87,4.56 -16.44,5.86l-475.97 164.52c-97.38,-12.79 -871.83,-561.51 -969.34,-625.47l-1294.88 -860.5zm-6031.75 -3280.42c212.04,0 268.55,7.51 529.95,104.76 91.15,33.9 108.37,47.43 186.98,95.41l2143.91 1421.12c43.87,29.16 27.89,25.49 77,57.98 38.95,25.76 46.78,24.66 68.75,35.27 3.87,1.87 13.55,5.31 17.48,7.29l1360.6 912.9c6.59,3.95 15.23,9.51 21.83,13.44l929.13 621.25c77.5,64.64 120.11,73.34 202.29,116.82 -561.51,1061.2 -1169.42,2330.07 -1693.12,3421.52 -669.89,0 -1709.39,292.17 -2258.05,316.91 -365.84,16.5 -1268.52,170.49 -1697.77,242.26 -324.87,54.33 -342.3,75.75 -700.27,75.75 0,-689.03 -9.75,-394.8 -66.22,-921.44 -28.44,-265.33 18.46,-547.62 -55.5,-1075.66 -34.77,-248.22 29.72,-123.6 -34.58,-455.18l-186.15 -2567.17c-12.25,-157.99 16.26,-83.82 7.79,-222.79l-88.85 -756c-1.35,-114.11 16.04,-155.04 22.39,-206.91 33.64,-274.77 8.96,-371.01 178,-649.36 118.55,-195.22 50,-142.4 262.92,-301.46 283.72,-211.93 607.08,-286.71 771.49,-286.71zm5714.28 3033.51c-177.63,-14.78 -336.57,-178.61 -475.68,-266.71 -6.62,-4.19 -15.56,-9.79 -21.97,-14.07 -6.28,-4.2 -14.81,-10.59 -20.85,-14.82l-160.08 -94.32c-63.62,-39.6 -68.38,-68.12 -150.85,-120.57l-1149.7 -757.95c-6.29,-4.19 -14.81,-10.59 -20.85,-14.81 -5.85,-4.09 -14.02,-11.15 -19.62,-15.15 -57.53,-41.08 -1.96,-11.17 -71.09,-48.42l-51.68 -22.15c-3.95,-2.13 -13.32,-6.58 -17.31,-8.99 -217.21,-131.4 -446.52,-341.38 -671.25,-463.19l-147.11 -80.99c-82.3,-52.95 -96.26,-56.82 -171.88,-113.11l-1114.92 -754.58c-381.96,-240.52 -570.26,-375.84 -990.56,-564.49 -151.62,-68.05 -262.31,-34.65 -377.37,-49.62 -291.32,-37.9 -546.87,69.54 -795.87,165.9 -213.5,82.63 -593.2,442.75 -675.24,649.15 -277.99,699.37 -157.95,481.21 -161.62,1177.14 -1.96,371.53 62.09,744.39 46.89,1065.86 -7.09,150 54.65,295.33 57.98,522.48l175.98 2680.61c4.94,95.89 -5.33,177.2 8.7,273.96 6.18,42.64 62.38,217.09 62.38,255.08 0,172.42 -40.35,36.07 -20.68,231.77 10.33,102.79 15.41,180.08 21.31,296.66 9.56,188.49 34.64,324.97 34.64,565.05 -548.59,12.22 -1358.31,255.16 -1974.76,282.73 -467.68,20.92 -1433.32,234.72 -1951.28,306.21 -496.63,68.55 -812.55,375.82 -1079.03,755.22 -241.38,343.66 -200.87,874.86 -135.53,1272.76 25.16,153.28 120.19,357.53 233.44,491.29 336.63,397.6 805.52,834.84 1194.08,1204.51l820.66 801.91c-65.15,97.3 -251.5,237.68 -359.61,310.59l-1085.09 844.82c-3.71,2.67 -12.53,7.95 -16.14,10.43l-61.51 40.97c-3.52,2.83 -11.49,10.21 -14.99,13.19l-765.95 603.69c-5.72,4.6 -13.96,11.01 -19.55,15.73l-984.7 814.24c-133.79,110.56 -262.62,201.61 -401.35,304.11 -163.11,120.52 -452.38,399.51 -544.15,579.1 -416.18,814.44 -166.77,1804.02 662.34,2241.72 38.53,20.34 75.73,36.73 118.6,57.18l3373.08 875.34c52.34,10.32 134.88,14.53 254.74,46.05 203.78,53.57 263.61,102.07 462.5,133.42l467.41 102.55c45.7,14.8 62.31,23.11 118.84,37.07l357.08 79.97c134.56,32.64 343.92,87.78 538.72,139.31l235.99 45.2c324.38,70.63 598.11,187.46 955.63,247 116.93,19.47 696.6,144.76 697.73,235.95l-0.09 89.32c-13.43,106.99 -17.31,84.44 -33.85,179.76l-262.75 1433.36c-20.76,143.5 0.16,149.19 -27.44,320.18 -95.82,593.75 -270.91,1199.53 -317.11,1802.09 -68.42,892.26 -585.59,1822.28 -136.98,2681.85 410.93,787.38 1467.66,1099.82 2257.57,638.04l1529.79 -798.25c182.99,-81.7 352,-215.48 549.74,-261.55 4.14,185.7 65.53,259.8 126.21,402.9 257.2,606.58 725.16,2224.49 1089.03,2614.67 310.11,332.54 615.94,452.21 1054.08,530.11 349.74,62.19 716.57,-87.26 1002.08,-241.01 6.96,-3.75 16.12,-8.44 22.96,-12.31 200.9,-113.84 376.55,-331.75 501.57,-521.36l645.52 -1047.6c23.14,-37.12 27.83,-41.25 57.09,-84l1755.4 -2795.21c11.95,-20.36 14.66,-23.84 31.78,-54.42l25.78 -48.05c2.19,-3.83 7.06,-12.89 9.42,-16.88l698.48 -1125.43c588.86,311.59 1221.39,614.28 1800.51,950.82l4512.44 2365.86c382.63,172.68 562.36,351.75 1129.73,351.75 498.94,0 804.22,-165.57 1067.8,-413.68l328.87 -411.87c273.75,-461.17 194.24,-988.16 105.2,-1487.6l-212.6 -1127.79c-37.43,-207.13 -46.62,-414.55 -80.88,-589.31 -75.92,-387.25 -141.06,-767.52 -211.68,-1128.75 -23.15,-118.44 -35.48,-146.71 -49.23,-268.54l-136.19 -851.11 221.7 -16.93c344.47,20.56 757.55,-26.32 1117.94,-35.2 282.03,-6.96 880.48,-26.6 1119.06,-102.21 55.87,-17.71 121.37,-33.2 140.75,-38.31 218.67,-57.63 366.01,-205.23 504.61,-371.72 4.68,-5.63 11.21,-13.76 15.9,-19.38 309.18,-370.03 610.05,-650.61 449.94,-1400.7 -88.66,-415.39 -215.57,-670.05 -532.11,-982.8l-35.55 -35c-2.48,-2.56 -40.54,-44.33 -50.56,-55.25 -391.29,-426.42 -769.12,-970.06 -1167.6,-1407.36l-1078.61 -1319.98c250.56,-374.18 887.54,-881.84 1244.09,-1225.03l1592.6 -1582.01c268.63,-203.87 464.78,-486.55 715.5,-695.43 367.81,-306.44 717.61,-713.87 1059.79,-1056.61 63.77,-63.88 110.44,-118.18 176.8,-175.94 103.6,-90.16 97.1,-55.97 185.72,-167.01 57.51,-72.07 94.38,-112.98 160.16,-192.57 328.43,-397.35 389.96,-1377.55 35.52,-1803.98 -40.71,-48.98 -47.16,-52 -82.83,-93.53 -130.88,-152.35 -117.46,-183.08 -296.94,-302.71 -605,-403.26 -437.66,-262.9 -1384.38,-414.56 -359.32,-57.56 -672.37,-105.04 -1031.92,-167.38l-1064.1 -135.19c-454.44,-76.47 -1102.35,-220.32 -1557.54,-241.4 -566.52,-26.23 -1020.82,-212.25 -1586.69,-212.25 13.28,-159.61 99.98,-441.61 144.94,-595.8 164.09,-562.72 308.51,-1233.48 499.34,-1793.43l273.85 -960.72c142.5,-564.46 254.42,-787.46 112.4,-1349.01 -57.88,-228.89 -101.06,-344.79 -235.33,-505.41l-186.27 -201.74c-29.7,-31.47 -57.92,-62.75 -87.42,-88.95 -82.26,-73.04 -43,-36.15 -126.7,-84.94 -6.75,-3.93 -16.11,-8.47 -22.8,-12.47l-189.9 -128.5c-157.82,-88.31 -369.07,-138.56 -529.85,-145.3 -234.3,-9.81 -304.25,-39.59 -551.88,26.72l-2498.43 997.8c-255.3,106.75 -475.61,181.79 -741.78,329.91l-33.45 15.6c-3.2,1.33 -106.46,36.35 -133.29,45.76l-462.1 177.21c-3.28,1.13 -12.63,5.47 -15.71,6.24l-42.62 3.03c-67.16,-27.79 -3.72,9.62 -39.4,-37l-1719.76 -3436.24c-77.62,-144.29 -44.59,-134.05 -82.82,-235.94 -90.5,-241.21 -384.44,-770.7 -571.83,-941.21 -625.54,-569.2 -1659,-561.21 -2273.2,0.03 -190.47,174.04 -309.79,454.37 -431.65,661.82 -84.53,143.88 -98.84,233.59 -166.94,397.43 -57.73,138.88 -124.99,221.34 -187.69,341.41l-539.79 1118.06c-69.75,129.42 -123.14,196.88 -188.96,340.14l-541.05 1116.8c-89.16,170.3 -316.03,585.47 -352.31,741.17z"/>
    <path class="fil0" d="M24326.95 18652.53c0,187.67 95.03,242.74 282.19,246.91 31.08,373.58 792,2295.19 881.83,2680.78 -56.98,85.08 -154.91,139.35 -128.57,268.41 64.4,315.56 1056.24,262.19 807.19,-135.75 -45.75,-73.1 4.83,-31.78 -78.97,-62.12l1128.75 -2751.32c58.62,251.65 127.44,246.91 352.73,246.91l0 2363.32c0,198.73 -352.73,20.92 -352.73,282.19 0,285.01 266.93,275.54 549.44,232.07 551.51,-84.87 1423.79,114.58 1481.09,-207.05 19.6,-110.06 -48.84,-208.78 -153.91,-246.52l-1100.61 9.86 0 -1058.21c315.78,-73.56 771.52,-70.54 1164.02,-70.54 246.87,-368.67 29.48,-423.28 -317.46,-423.28 -192.91,0 -737.1,18.02 -846.56,70.54l0 -987.65 1269.84 -70.55c90.62,-388.95 -13.36,-388 -388.01,-388l-1093.63 35.11c-159.63,8.4 -166.75,35.43 -352.57,35.43 -7.05,-316.47 -187.22,-246.91 -634.92,-246.91 -117.08,0 -323.22,230.46 -35.28,423.28 -86.92,164.28 -146.48,358.99 -226.52,549.49l-466.89 1120.41c-61.03,136.8 -212.33,451.02 -223.7,587.6l-70.54 0c-11.97,-143.76 -126.8,-440.1 -176.37,-564.38l-564.37 -1693.12c29.99,-44.79 141.09,-152.82 141.09,-176.37 0,-322.91 -258.5,-246.91 -670.19,-246.91 -82.25,0 -176.37,94.12 -176.37,176.37z"/>
    <path class="fil0" d="M23304.02 19146.35c226.18,0 423.28,872.7 423.28,1164.02 -159.52,-3.55 -140.18,-35.27 -317.46,-35.27l-634.92 0c6.22,-279 298.45,-1128.75 529.1,-1128.75zm-1234.57 2610.23c-187.15,4.17 -282.18,59.24 -282.18,246.92 0,84.8 57.15,103.69 105.82,176.36 178.03,0 846.56,142.49 846.56,-176.36 0,-195.88 -90.42,-210.46 -246.91,-246.92l176.36 -1058.2c188.47,0 377.22,-1.47 565.58,-1.21 225.46,0.32 316.36,36.49 563.17,36.49 0,359.21 70.55,691.42 70.55,1058.2 -439.32,0 -298.57,423.28 0,423.28 603.08,0 734.62,39.96 634.92,-388.01 -83.05,-19.35 -104.18,-32.88 -211.64,-35.27 0,-621.03 -87.28,-1259.39 -176.13,-1799.18 -100.13,-608.29 -273.99,-1269.61 -846.8,-1269.61 -310.75,0 -478.95,249.78 -588.52,469.69 -134.03,268.99 -203.71,469.46 -289.65,768.55 -73.52,255.9 -135.14,604.5 -180.27,877.93l-140.86 917.34z"/>
    <path class="fil0" d="M20376.33 20804.2c-164,0 -289.43,-74.64 -423.28,-105.82 0,-842.45 -183.55,-1587.3 599.65,-1587.3 637.32,0 1033.46,900.04 468.24,1420.62 -129.07,118.86 -413.23,272.5 -644.61,272.5zm-1058.2 -2186.95c0,122.9 6.52,229.85 211.64,246.92l0 2680.77c-323.77,26.95 -255.21,423.28 70.55,423.28 303.15,0 564.37,56.02 564.37,-246.91 0,-113.23 -98.1,-166.92 -211.64,-176.37l0 -388c101.23,23.58 308.37,70.54 423.28,70.54 675.55,0 1340.39,-596.44 1340.39,-1269.84 0,-417.24 -69.15,-618.39 -378.5,-926.61 -303.63,-302.52 -844.87,-447.3 -1208.8,-272.68 92.83,-398.45 -303.09,-317.46 -634.92,-317.46 -82.25,0 -176.37,94.11 -176.37,176.36z"/>
    <path class="fil0" d="M26866.63 24190.44c0,137.37 12.18,130.37 141.1,141.1 0,223.76 35.27,294.5 35.27,529.1l0 705.47c0,298.66 -35.27,448.83 -35.27,740.74 -254.48,21.17 -133.58,282.18 0,282.18 224.82,0 458.55,46.8 458.55,-141.09 0,-107.18 -61.19,-119.76 -141.09,-141.09 0,-469.52 35.27,-806.95 35.27,-1269.84 0,-132.85 -23.21,-66.7 -35.27,-211.65 118.25,79.2 484.99,698.63 584.73,861.48 103.88,169.62 180.06,289.81 284.21,458.39 90.82,146.98 76.44,111.14 47.59,232.74 -61.77,260.3 62.74,211.06 459.13,211.06 256.21,0 35.27,-326.71 35.27,-352.73l36.78 -1024.23c-2.75,-171.37 -74.07,-594.84 -26.72,-764.66 0.32,-1.15 249.96,-362.79 -45.33,-362.79 -273.07,0 -195.49,-17.79 -423.28,35.28 -118.76,447.77 180.92,-62.58 177.19,775.19 -1.57,352.99 -0.83,706.02 -0.83,1059.02l-839.46 -1312.21c-54.06,-80.03 -88.42,-129.46 -140.91,-216.32 -130.58,-216.08 -7.28,-60 -7.28,-235.14 0,-211.1 -599.65,-211.1 -599.65,0z"/>
    <path class="fil0" d="M29547.41 18617.25c0,168.32 -18.87,227.74 211.64,246.92 0,940.41 -70.55,1829.05 -70.55,2751.32 -251.37,20.92 -263.21,207.01 -176.37,388.01 276.77,64.47 689.18,35.35 1022.93,35.27 188.43,-0.05 853.67,115.31 811.29,-211.64 -40.33,-311.15 -808.62,-211.64 -1234.57,-211.64 0,-921.97 70.55,-1801.41 70.55,-2751.32 359.02,-83.65 157.41,-423.28 0,-423.28 -210.74,0 -634.92,-53.87 -634.92,176.36z"/>
    <path class="fil0" d="M29970.69 26130.48l-211.64 0c-349.09,0 -443.52,-522.09 -400.51,-821.37 160.41,-1116.33 1211.79,-826.11 1211.79,-25.19 0,386.47 -155.33,846.56 -599.64,846.56zm-564.38 -1904.76c45.63,170.87 60.2,40.77 105.82,211.64 -526.83,140.67 -676.9,1583.92 -70.54,1904.76 -0.09,0.34 -191.38,317.46 70.54,317.46 644.29,0 917.11,88.07 917.11,-176.37 0,-140.71 6.21,-17.38 -34.04,-71.76l-51.79 -54.09c-3.66,-3.52 -13.67,-9.74 -19.99,-15.24 574,-153.27 805.53,-1471.49 105.82,-1940.04 43.66,-82.51 60.58,-91.82 70.55,-211.64 -72.68,-48.66 -91.57,-105.82 -176.37,-105.82 -646.98,0 -769.23,-79.73 -917.11,141.1z"/>
    <path class="fil0" d="M25878.98 24543.18c211.23,141.45 311.33,571.62 317.46,846.56 -276.85,0 -401.1,-35.27 -670.2,-35.27 4.68,-209.94 154.65,-639.11 352.74,-811.29zm-846.56 1869.49c-92.39,44.32 -211.64,40.55 -211.64,176.36 0,233.32 529.27,138.65 670.19,105.82 0,-204.04 47.15,-231.25 -141.09,-246.91 0,-153.67 16.89,-776.01 176.36,-776.01 734.76,0 737.13,-74.84 741.38,316.82 2.2,203.17 34.64,246.11 34.64,459.19 -324.91,7.24 -202.62,282.19 -70.55,282.19 289.86,0 564.38,56.32 564.38,-141.1 0,-115.73 -71.16,-132.34 -176.37,-141.09 0,-350.35 -146.83,-1512.53 -292.93,-1823.47 -149.73,-318.67 -228.67,-363.48 -483.09,-363.48 -340.99,0 -522.41,586.54 -600.06,881.42 -70.12,266.25 -211.22,993.71 -211.22,1270.26z"/>
    <path class="fil0" d="M21610.9 24684.27l-35.27 1446.21c0,121.61 26.09,136.58 35.27,246.91 -143.82,11.97 -141.09,5.88 -141.09,176.37 0,149.86 326.39,218.25 599.64,35.27 -12.71,-152.74 -19.78,-198.61 -176.36,-211.64 0,-469.57 -80.43,-580.43 211.64,-776.01 59.57,223.09 418.49,571.15 411.26,768.76 -10.29,281.18 -62.53,254.17 435.3,254.17 95.14,0 247.21,-140.33 51.37,-263.01 -140.74,-88.17 -72.75,31.31 -238.88,-254.96l-482.69 -751.87 539.35 -624.68c123.07,-88.98 201.4,-33.25 201.4,-221.89 0,-150.5 -135.38,-105.82 -458.56,-105.82 -68.13,0 -141.09,62.89 -141.09,105.82 0,204.72 152.92,33.66 -202.55,432.38 -88.25,98.98 -240.42,315.8 -326.55,378.91 0,-219.47 -21.29,-493.84 92.35,-650.63 235.42,-324.82 -120.18,-266.48 -409.81,-266.48 -140.29,0 -224.16,260.6 35.27,282.19z"/>
    <path class="fil0" d="M30781.97 24119.9c-9.3,109.22 0.44,66.68 -35.27,141.09 315.94,363.48 127.5,-102.7 480.39,965.82 61.42,185.98 366.17,972.43 366.17,1080.04 0,1.81 -204.77,317.46 70.55,317.46 309.63,0 458.55,47.9 458.55,-176.37 0,-206.11 -183.38,76.96 93.79,-541.13l576.65 -1433.94c80.15,-136.17 117.25,-71.28 211.4,-211.88 -50.35,-216.12 -55.45,-176.37 -458.56,-176.37 -132.13,0 -236.68,228.41 -35.27,282.19 -140.1,264.77 -558.41,1514.83 -705.47,1622.58 -13.55,-162.91 -256.43,-786.68 -330.77,-1009.62 -284.35,-852.81 -184.84,-487.09 -112.49,-703.26 101.23,-302.47 -520.3,-179.65 -579.67,-156.61z"/>
    <path class="fil0" d="M20729.07 24719.54c32.33,138.77 16.34,143.06 141.09,176.37 0,345.53 10.37,606.53 -44.14,908.24 -110.85,613.54 -726.64,639.02 -765.96,78.23 -17.59,-250.85 -73.29,-639.12 0.42,-879.04 38.06,-123.9 -1.82,-12.03 43.5,-97.6 5.68,-10.75 213.61,-292.02 -150.93,-292.02l-282.18 35.28c-90.58,388.78 75.51,28.34 72.26,527.38 -2.52,387.13 -59.82,864.16 157.84,1182.55 208.8,305.44 1277.4,611.11 1288.05,-1146.74 0.21,-35.02 2.63,-110.32 -0.07,-141.24l-36.6 -139.77c84.5,-115.33 61.24,-25.45 141.09,-176.36 -102.56,-193.83 -117.98,-176.37 -388.01,-176.37 -99.61,0 -136.08,80.94 -176.36,141.09z"/>
    <path class="fil0" d="M23092.38 24578.45c0,158.55 92.47,21.45 162.82,260.46 51.4,174.59 26.12,188.74 106.05,352.51 140.79,288.46 279.49,300.73 507.15,409.96 0,164.68 -1.41,329.96 0.74,494.57 0.7,53.86 4.82,195.48 -6.3,240.61 -58.83,238.64 -100.26,-40.73 -100.26,252.47 0,147.3 122.4,105.82 423.28,105.82 119.72,0 105.82,-61.93 105.82,-176.36 0,-153.92 5.93,3.17 -38.37,-67.45 -4.78,-7.63 -23.86,-32.37 -28.94,-41.62 -60,-109.28 -41.34,-174.79 -39.21,-313.51 3.6,-235.79 -19.65,-350.38 -34.58,-529.8 228.41,-53.22 383.93,-291.33 455.22,-497.17 60.02,-173.31 3.68,-203.4 105.65,-355.91 65.73,-98.3 91.09,-23.11 62.9,-157.21 -39.65,-188.61 -553.22,-176.83 -553.22,22.63 0,137.36 12.18,130.37 141.09,141.09 -57.8,248.12 -80.86,564.38 -388,564.38 -147.93,0 -224.86,-69.03 -294.72,-163.84 -281.47,-382.04 -22.74,-428.56 -22.74,-541.63 0,-208.86 -564.38,-208.86 -564.38,0z"/>
    <path class="fil0" d="M18295.21 24155.17c0,135.47 13.59,162.42 141.09,176.37l-61.42 1949.16c-65.9,122.07 -114.95,29.31 -114.95,202.51 0,232.27 737.29,141.1 1164.02,141.1 193.25,0 163.61,-188.15 141.1,-282.19 -271.15,-63.17 -521.7,-35.27 -846.56,-35.27 0,-669.93 35.27,-1275.56 35.27,-1975.31 249.79,-66.7 132.6,-282.19 0,-282.19 -124.32,0 -458.55,-37.5 -458.55,105.82z"/>
   </g>
   <ellipse class="fil1 str0" cx="12553.88" cy="21407.52" rx="1356.36" ry="1291.77"/>
   <ellipse class="fil1 str0" cx="10798.42" cy="22843.8" rx="637.57" ry="607.21"/>
   <ellipse class="fil1 str0" cx="14349.22" cy="20070.98" rx="637.57" ry="607.21"/>
   <ellipse class="fil2 str0" cx="24889.13" cy="13495.39" rx="1356.36" ry="1291.77"/>
   <ellipse class="fil2 str0" cx="38276.91" cy="21684.36" rx="1356.36" ry="1291.77"/>
   <ellipse class="fil2 str0" cx="26984.07" cy="32745.2" rx="1356.36" ry="1291.77"/>
   <ellipse class="fil2 str0" cx="22837.78" cy="12697.73" rx="637.57" ry="607.21"/>
   <ellipse class="fil2 str0" cx="27263.41" cy="12826.69" rx="637.57" ry="607.21"/>
   <ellipse class="fil2 str0" cx="40052.91" cy="20063.12" rx="637.57" ry="607.21"/>
   <ellipse class="fil2 str0" cx="36571.36" cy="23348.41" rx="637.57" ry="607.21"/>
   <ellipse class="fil2 str0" cx="28050.71" cy="30708.24" rx="637.57" ry="607.21"/>
   <ellipse class="fil2 str0" cx="25523.55" cy="34762.68" rx="637.57" ry="607.21"/>
  </g>
 </g>
</svg>
